<svg width="27" height="27" viewBox="0 0 27 27" fill="none" xmlns="http://www.w3.org/2000/svg">
<path d="M13.5 23.625C14.8296 23.625 16.1462 23.3631 17.3747 22.8543C18.6031 22.3455 19.7193 21.5996 20.6595 20.6595C21.5996 19.7193 22.3455 18.6031 22.8543 17.3747C23.3631 16.1462 23.625 14.8296 23.625 13.5C23.625 12.1704 23.3631 10.8538 22.8543 9.62533C22.3455 8.39691 21.5996 7.28074 20.6595 6.34054C19.7193 5.40035 18.6031 4.65455 17.3747 4.14572C16.1462 3.63689 14.8296 3.375 13.5 3.375M13.5 23.625C12.1704 23.625 10.8538 23.3631 9.62533 22.8543C8.39691 22.3455 7.28074 21.5996 6.34054 20.6595C5.40035 19.7193 4.65455 18.6031 4.14572 17.3747C3.63689 16.1462 3.375 14.8296 3.375 13.5C3.375 12.1704 3.63689 10.8538 4.14572 9.62533C4.65455 8.39691 5.40035 7.28074 6.34054 6.34054C7.28074 5.40035 8.39691 4.65455 9.62533 4.14572C10.8538 3.63689 12.1704 3.375 13.5 3.375M13.5 23.625C16.6061 23.625 17.9336 17.8166 17.9336 13.5C17.9336 9.18338 16.6061 3.375 13.5 3.375M13.5 23.625C10.3939 23.625 9.06638 17.8166 9.06638 13.5C9.06638 9.18338 10.3939 3.375 13.5 3.375M3.9375 10.125H23.0625M3.9375 16.875H23.0625" stroke="white" stroke-width="1.375" stroke-linecap="round" stroke-linejoin="round"/>
</svg>
