<svg width="27" height="27" viewBox="0 0 27 27" fill="none" xmlns="http://www.w3.org/2000/svg">
<path d="M4.5 21.375V11.25C4.5 10.8937 4.57987 10.5562 4.73962 10.2375C4.89937 9.91875 5.1195 9.65625 5.4 9.45L12.15 4.3875C12.5437 4.0875 12.9937 3.9375 13.5 3.9375C14.0062 3.9375 14.4562 4.0875 14.85 4.3875L21.6 9.45C21.8812 9.65625 22.1017 9.91875 22.2615 10.2375C22.4212 10.5562 22.5007 10.8937 22.5 11.25V21.375C22.5 21.9937 22.2795 22.5236 21.8385 22.9646C21.3975 23.4056 20.868 23.6257 20.25 23.625H16.875C16.5562 23.625 16.2892 23.517 16.074 23.301C15.8587 23.085 15.7507 22.818 15.75 22.5V16.875C15.75 16.5562 15.642 16.2892 15.426 16.074C15.21 15.8587 14.943 15.7507 14.625 15.75H12.375C12.0562 15.75 11.7892 15.858 11.574 16.074C11.3587 16.29 11.2507 16.557 11.25 16.875V22.5C11.25 22.8187 11.142 23.0861 10.926 23.3021C10.71 23.5181 10.443 23.6257 10.125 23.625H6.75C6.13125 23.625 5.60175 23.4049 5.1615 22.9646C4.72125 22.5244 4.50075 21.9945 4.5 21.375Z" fill="white"/>
</svg>
