<svg width="27" height="27" viewBox="0 0 27 27" fill="none" xmlns="http://www.w3.org/2000/svg">
<path d="M2.8125 8.4375H24.1875M19.125 2.8125L15.75 8.4375M11.25 2.8125L7.875 8.4375" stroke="white" stroke-width="1.375" stroke-linejoin="round"/>
<path d="M2.8125 13.5C2.8125 8.46225 2.8125 5.94225 4.37737 4.37737C5.94225 2.8125 8.46112 2.8125 13.5 2.8125C18.5377 2.8125 21.0577 2.8125 22.6226 4.37737C24.1875 5.94225 24.1875 8.46112 24.1875 13.5C24.1875 18.5377 24.1875 21.0577 22.6226 22.6226C21.0577 24.1875 18.5389 24.1875 13.5 24.1875C8.46225 24.1875 5.94225 24.1875 4.37737 22.6226C2.8125 21.0577 2.8125 18.5389 2.8125 13.5Z" stroke="white" stroke-width="1.375"/>
<path d="M16.8221 16.7569C16.6523 17.4623 15.8467 17.9606 14.2346 18.9563C12.6787 19.9193 11.9003 20.4019 11.2725 20.2073C11.009 20.1231 10.7723 19.971 10.5862 19.7663C10.125 19.26 10.125 18.2779 10.125 16.3125C10.125 14.3471 10.125 13.365 10.5862 12.8588C10.7775 12.6495 11.0138 12.4976 11.2725 12.4166C11.9003 12.2231 12.6788 12.7058 14.2358 13.6688C15.8468 14.6655 16.6523 15.1639 16.8233 15.8681C16.893 16.1603 16.893 16.4647 16.8233 16.7569H16.8221Z" stroke="white" stroke-width="1.375" stroke-linejoin="round"/>
</svg>
