<svg width="31" height="31" viewBox="0 0 31 31" fill="none" xmlns="http://www.w3.org/2000/svg">
<path d="M9.05078 15.5C9.05078 15.2431 9.15285 14.9967 9.33452 14.815C9.5162 14.6333 9.7626 14.5313 10.0195 14.5313H14.5313V10.0195C14.5313 9.76254 14.6334 9.51614 14.8151 9.33446C14.9967 9.15278 15.2431 9.05072 15.5001 9.05072C15.757 9.05072 16.0034 9.15278 16.1851 9.33446C16.3668 9.51614 16.4688 9.76254 16.4688 10.0195V14.5313H20.9806C21.2375 14.5313 21.4839 14.6333 21.6656 14.815C21.8473 14.9967 21.9494 15.2431 21.9494 15.5C21.9494 15.7569 21.8473 16.0033 21.6656 16.185C21.4839 16.3667 21.2375 16.4688 20.9806 16.4688H16.4688V20.9806C16.4688 21.2375 16.3668 21.4839 16.1851 21.6656C16.0034 21.8472 15.757 21.9493 15.5001 21.9493C15.2431 21.9493 14.9967 21.8472 14.8151 21.6656C14.6334 21.4839 14.5313 21.2375 14.5313 20.9806V16.4688H10.0195C9.7626 16.4688 9.5162 16.3667 9.33452 16.185C9.15285 16.0033 9.05078 15.7569 9.05078 15.5Z" fill="white"/>
<path fill-rule="evenodd" clip-rule="evenodd" d="M9.45107 4.86827C13.4713 4.42257 17.5286 4.42257 21.5488 4.86827C23.9087 5.13177 25.8139 6.99048 26.0903 9.36327C26.5682 13.4411 26.5682 17.5602 26.0903 21.638C25.8126 24.0108 23.9074 25.8682 21.5488 26.133C17.5286 26.5787 13.4713 26.5787 9.45107 26.133C7.09119 25.8682 5.18598 24.0108 4.90957 21.638C4.43379 17.5602 4.43379 13.441 4.90957 9.36327C5.18598 6.99048 7.09248 5.13177 9.45107 4.86827ZM21.3344 6.79286C17.4566 6.36302 13.5432 6.36302 9.66548 6.79286C8.94763 6.87249 8.27759 7.19182 7.76361 7.69924C7.24962 8.20666 6.92171 8.87254 6.83286 9.58931C6.37345 13.5172 6.37345 17.4853 6.83286 21.4132C6.92198 22.1298 7.25001 22.7954 7.76397 23.3025C8.27793 23.8097 8.94782 24.1288 9.66548 24.2084C13.5108 24.6372 17.4891 24.6372 21.3344 24.2084C22.0518 24.1285 22.7214 23.8093 23.2351 23.3022C23.7488 22.795 24.0767 22.1296 24.1657 21.4132C24.6251 17.4853 24.6251 13.5172 24.1657 9.58931C24.0764 8.87321 23.7484 8.20807 23.2348 7.70118C22.7211 7.1943 22.0516 6.87523 21.3344 6.79544" fill="white"/>
</svg>
